<svg xmlns="http://www.w3.org/2000/svg" xmlns:xlink="http://www.w3.org/1999/xlink" width="150" zoomAndPan="magnify" viewBox="0 0 112.5 104.999996" height="140" preserveAspectRatio="xMidYMid meet" version="1.0"><defs><clipPath id="fba43443aa"><path d="M 0 0.230469 L 95.574219 0.230469 L 95.574219 104.019531 L 0 104.019531 Z M 0 0.230469 " clip-rule="nonzero"/></clipPath><clipPath id="379008baeb"><path d="M 0.476562 0.230469 L 95.097656 0.230469 L 95.097656 104.019531 L 0.476562 104.019531 Z M 0.476562 0.230469 " clip-rule="nonzero"/></clipPath><clipPath id="842794ca72"><rect x="0" width="96" y="0" height="105"/></clipPath><clipPath id="bb5e912ad9"><path d="M 82.109375 68.804688 L 108.988281 68.804688 L 108.988281 95.683594 L 82.109375 95.683594 Z M 82.109375 68.804688 " clip-rule="nonzero"/></clipPath><clipPath id="2a2b711cfb"><path d="M 77.015625 66.101562 L 112 66.101562 L 112 101 L 77.015625 101 Z M 77.015625 66.101562 " clip-rule="nonzero"/></clipPath></defs><g clip-path="url(#fba43443aa)"><g transform="matrix(1, 0, 0, 1, 0, 0.00000000000000977)"><g clip-path="url(#842794ca72)"><g clip-path="url(#379008baeb)"><path fill="#ffffff" d="M 95.007812 76.769531 L 49.839844 102.84375 L 47.789062 104.03125 L 45.734375 102.839844 L 0.570312 76.765625 L 0.570312 27.492188 L 47.789062 0.230469 L 95.007812 27.496094 Z M 4.675781 74.398438 L 45.734375 98.101562 L 45.734375 55.941406 L 4.675781 32.230469 Z M 47.789062 4.96875 L 6.726562 28.679688 L 25.203125 39.351562 L 66.265625 15.640625 Z M 70.371094 18.011719 L 29.304688 41.714844 L 47.789062 52.386719 L 88.847656 28.683594 Z M 90.902344 32.234375 L 49.839844 55.945312 L 49.839844 98.101562 L 90.902344 74.398438 Z M 90.902344 32.234375 " fill-opacity="1" fill-rule="nonzero"/></g></g></g></g><g clip-path="url(#bb5e912ad9)"><path fill="#00bf63" d="M 109.035156 82.269531 C 109.035156 83.152344 108.949219 84.027344 108.777344 84.894531 C 108.601562 85.761719 108.347656 86.605469 108.011719 87.421875 C 107.671875 88.238281 107.257812 89.011719 106.765625 89.746094 C 106.273438 90.484375 105.714844 91.164062 105.089844 91.789062 C 104.464844 92.414062 103.785156 92.972656 103.050781 93.460938 C 102.316406 93.953125 101.539062 94.367188 100.722656 94.707031 C 99.90625 95.046875 99.066406 95.300781 98.199219 95.472656 C 97.332031 95.644531 96.457031 95.730469 95.570312 95.730469 C 94.6875 95.730469 93.8125 95.644531 92.945312 95.472656 C 92.078125 95.300781 91.234375 95.046875 90.417969 94.707031 C 89.601562 94.367188 88.824219 93.953125 88.089844 93.460938 C 87.355469 92.972656 86.675781 92.414062 86.050781 91.789062 C 85.425781 91.164062 84.867188 90.484375 84.375 89.746094 C 83.886719 89.011719 83.46875 88.238281 83.132812 87.421875 C 82.792969 86.605469 82.539062 85.761719 82.367188 84.894531 C 82.195312 84.027344 82.109375 83.152344 82.109375 82.269531 C 82.109375 81.382812 82.195312 80.507812 82.367188 79.640625 C 82.539062 78.773438 82.792969 77.933594 83.132812 77.117188 C 83.46875 76.300781 83.886719 75.523438 84.375 74.789062 C 84.867188 74.054688 85.425781 73.371094 86.050781 72.746094 C 86.675781 72.121094 87.355469 71.566406 88.089844 71.074219 C 88.824219 70.582031 89.601562 70.167969 90.417969 69.828125 C 91.234375 69.492188 92.078125 69.234375 92.945312 69.0625 C 93.8125 68.890625 94.6875 68.804688 95.570312 68.804688 C 96.457031 68.804688 97.332031 68.890625 98.199219 69.0625 C 99.066406 69.234375 99.90625 69.492188 100.722656 69.828125 C 101.539062 70.167969 102.316406 70.582031 103.050781 71.074219 C 103.785156 71.566406 104.464844 72.121094 105.089844 72.746094 C 105.714844 73.371094 106.273438 74.054688 106.765625 74.789062 C 107.257812 75.523438 107.671875 76.300781 108.011719 77.117188 C 108.347656 77.933594 108.601562 78.773438 108.777344 79.640625 C 108.949219 80.507812 109.035156 81.382812 109.035156 82.269531 Z M 109.035156 82.269531 " fill-opacity="1" fill-rule="nonzero"/></g><g clip-path="url(#2a2b711cfb)"><path fill="#ffffff" d="M 94.378906 66.101562 C 84.789062 66.101562 77.015625 73.875 77.015625 83.464844 C 77.015625 93.054688 84.789062 100.828125 94.378906 100.828125 C 103.96875 100.828125 111.738281 93.054688 111.738281 83.464844 C 111.738281 73.875 103.964844 66.101562 94.378906 66.101562 Z M 106.316406 77.28125 L 91.851562 93.0625 C 91.496094 93.449219 90.890625 93.460938 90.523438 93.089844 L 82.464844 84.929688 C 82.15625 84.617188 82.160156 84.113281 82.46875 83.804688 L 84.882812 81.421875 C 85.242188 81.070312 85.820312 81.070312 86.171875 81.429688 L 91.0625 86.378906 L 102.589844 73.808594 C 102.863281 73.507812 103.332031 73.484375 103.628906 73.761719 L 106.269531 76.179688 C 106.585938 76.472656 106.609375 76.964844 106.316406 77.28125 Z M 106.316406 77.28125 " fill-opacity="1" fill-rule="nonzero"/></g></svg>