<svg xmlns="http://www.w3.org/2000/svg" xmlns:xlink="http://www.w3.org/1999/xlink" width="147" zoomAndPan="magnify" viewBox="0 0 110.25 104.999996" height="140" preserveAspectRatio="xMidYMid meet" version="1.0"><defs><clipPath id="90ee1f8776"><path d="M 0 0.355469 L 95 0.355469 L 95 103.898438 L 0 103.898438 Z M 0 0.355469 " clip-rule="nonzero"/></clipPath><clipPath id="1bf56ae727"><path d="M 0.476562 0.355469 L 94.875 0.355469 L 94.875 103.898438 L 0.476562 103.898438 Z M 0.476562 0.355469 " clip-rule="nonzero"/></clipPath><clipPath id="fe5d44c0e2"><rect x="0" width="95" y="0" height="104"/></clipPath><clipPath id="44470278cf"><path d="M 81.914062 68.765625 L 108.734375 68.765625 L 108.734375 95.582031 L 81.914062 95.582031 Z M 81.914062 68.765625 " clip-rule="nonzero"/></clipPath><clipPath id="d19db64326"><path d="M 81.335938 68.1875 L 109.503906 68.1875 L 109.503906 96.492188 L 81.335938 96.492188 Z M 81.335938 68.1875 " clip-rule="nonzero"/></clipPath></defs><g clip-path="url(#90ee1f8776)"><g transform="matrix(1, 0, 0, 1, 0, 0.00000000000001471)"><g clip-path="url(#fe5d44c0e2)"><g clip-path="url(#1bf56ae727)"><path fill="#ffffff" d="M 94.785156 76.710938 L 49.722656 102.726562 L 47.675781 103.910156 L 45.628906 102.722656 L 0.566406 76.707031 L 0.566406 27.550781 L 47.675781 0.355469 L 94.785156 27.554688 Z M 4.664062 74.347656 L 45.628906 97.996094 L 45.628906 55.933594 L 4.664062 32.277344 Z M 47.675781 5.082031 L 6.710938 28.734375 L 25.144531 39.382812 L 66.109375 15.726562 Z M 70.207031 18.09375 L 29.238281 41.742188 L 47.675781 52.386719 L 88.640625 28.738281 Z M 90.6875 32.28125 L 49.722656 55.9375 L 49.722656 97.996094 L 90.6875 74.347656 Z M 90.6875 32.28125 " fill-opacity="1" fill-rule="nonzero"/></g></g></g></g><g clip-path="url(#44470278cf)"><path fill="#000000" d="M 108.734375 82.175781 C 108.734375 83.054688 108.648438 83.925781 108.476562 84.789062 C 108.304688 85.65625 108.050781 86.492188 107.710938 87.304688 C 107.375 88.121094 106.960938 88.890625 106.472656 89.625 C 105.984375 90.355469 105.429688 91.035156 104.804688 91.65625 C 104.183594 92.277344 103.503906 92.835938 102.773438 93.324219 C 102.042969 93.8125 101.269531 94.226562 100.457031 94.5625 C 99.640625 94.898438 98.804688 95.15625 97.941406 95.324219 C 97.078125 95.496094 96.203125 95.582031 95.324219 95.582031 C 94.445312 95.582031 93.570312 95.496094 92.707031 95.324219 C 91.84375 95.15625 91.007812 94.898438 90.191406 94.5625 C 89.378906 94.226562 88.605469 93.8125 87.875 93.324219 C 87.140625 92.835938 86.464844 92.277344 85.84375 91.65625 C 85.21875 91.035156 84.664062 90.355469 84.175781 89.625 C 83.6875 88.890625 83.273438 88.121094 82.9375 87.304688 C 82.597656 86.492188 82.34375 85.65625 82.171875 84.789062 C 82 83.925781 81.914062 83.054688 81.914062 82.175781 C 81.914062 81.292969 82 80.421875 82.171875 79.558594 C 82.34375 78.695312 82.597656 77.855469 82.9375 77.042969 C 83.273438 76.230469 83.6875 75.457031 84.175781 74.726562 C 84.664062 73.992188 85.21875 73.316406 85.84375 72.695312 C 86.464844 72.070312 87.140625 71.515625 87.875 71.027344 C 88.605469 70.535156 89.378906 70.125 90.191406 69.785156 C 91.007812 69.449219 91.84375 69.195312 92.707031 69.023438 C 93.570312 68.851562 94.445312 68.765625 95.324219 68.765625 C 96.203125 68.765625 97.078125 68.851562 97.941406 69.023438 C 98.804688 69.195312 99.640625 69.449219 100.457031 69.785156 C 101.269531 70.125 102.042969 70.535156 102.773438 71.027344 C 103.503906 71.515625 104.183594 72.070312 104.804688 72.695312 C 105.429688 73.316406 105.984375 73.992188 106.472656 74.726562 C 106.960938 75.457031 107.375 76.230469 107.710938 77.042969 C 108.050781 77.855469 108.304688 78.695312 108.476562 79.558594 C 108.648438 80.421875 108.734375 81.292969 108.734375 82.175781 Z M 108.734375 82.175781 " fill-opacity="1" fill-rule="nonzero"/></g><g clip-path="url(#d19db64326)"><path fill="#ffffff" d="M 95.347656 68.1875 C 94.429688 68.1875 93.515625 68.277344 92.613281 68.457031 C 91.710938 68.636719 90.835938 68.902344 89.984375 69.253906 C 89.136719 69.605469 88.328125 70.035156 87.5625 70.546875 C 86.796875 71.058594 86.089844 71.640625 85.441406 72.289062 C 84.789062 72.941406 84.207031 73.648438 83.695312 74.414062 C 83.1875 75.179688 82.753906 75.988281 82.402344 76.835938 C 82.050781 77.6875 81.785156 78.5625 81.605469 79.464844 C 81.425781 80.367188 81.335938 81.28125 81.335938 82.199219 C 81.335938 83.121094 81.425781 84.03125 81.605469 84.933594 C 81.785156 85.835938 82.050781 86.714844 82.402344 87.5625 C 82.753906 88.414062 83.1875 89.222656 83.695312 89.984375 C 84.207031 90.75 84.789062 91.457031 85.441406 92.109375 C 86.089844 92.761719 86.796875 93.339844 87.5625 93.851562 C 88.328125 94.363281 89.136719 94.796875 89.984375 95.148438 C 90.835938 95.5 91.710938 95.765625 92.613281 95.945312 C 93.515625 96.125 94.429688 96.214844 95.347656 96.214844 C 96.269531 96.214844 97.179688 96.125 98.082031 95.945312 C 98.984375 95.765625 99.863281 95.5 100.710938 95.148438 C 101.5625 94.796875 102.371094 94.363281 103.136719 93.851562 C 103.898438 93.339844 104.609375 92.761719 105.257812 92.109375 C 105.910156 91.457031 106.488281 90.75 107 89.984375 C 107.511719 89.222656 107.945312 88.414062 108.296875 87.5625 C 108.648438 86.714844 108.914062 85.835938 109.09375 84.933594 C 109.273438 84.03125 109.363281 83.121094 109.363281 82.199219 C 109.363281 81.28125 109.273438 80.367188 109.09375 79.464844 C 108.914062 78.5625 108.648438 77.6875 108.296875 76.835938 C 107.945312 75.988281 107.511719 75.179688 107 74.414062 C 106.488281 73.648438 105.910156 72.941406 105.257812 72.289062 C 104.609375 71.640625 103.898438 71.058594 103.136719 70.546875 C 102.371094 70.035156 101.5625 69.605469 100.710938 69.253906 C 99.863281 68.902344 98.984375 68.636719 98.082031 68.457031 C 97.179688 68.277344 96.269531 68.1875 95.347656 68.1875 Z M 102.355469 83.601562 L 96.75 83.601562 L 96.75 89.207031 C 96.75 89.394531 96.714844 89.570312 96.644531 89.742188 C 96.574219 89.914062 96.472656 90.066406 96.339844 90.199219 C 96.207031 90.328125 96.058594 90.429688 95.886719 90.5 C 95.714844 90.574219 95.535156 90.609375 95.347656 90.609375 C 95.164062 90.609375 94.984375 90.574219 94.8125 90.5 C 94.640625 90.429688 94.488281 90.328125 94.359375 90.199219 C 94.226562 90.066406 94.125 89.914062 94.054688 89.742188 C 93.984375 89.570312 93.949219 89.394531 93.949219 89.207031 L 93.949219 83.601562 L 88.34375 83.601562 C 88.15625 83.601562 87.976562 83.566406 87.804688 83.496094 C 87.632812 83.421875 87.484375 83.324219 87.351562 83.191406 C 87.21875 83.058594 87.117188 82.90625 87.046875 82.738281 C 86.976562 82.566406 86.941406 82.386719 86.941406 82.199219 C 86.941406 82.015625 86.976562 81.835938 87.046875 81.664062 C 87.117188 81.492188 87.21875 81.339844 87.351562 81.210938 C 87.484375 81.078125 87.632812 80.976562 87.804688 80.90625 C 87.976562 80.835938 88.15625 80.796875 88.34375 80.796875 L 93.949219 80.796875 L 93.949219 75.191406 C 93.949219 75.007812 93.984375 74.828125 94.054688 74.65625 C 94.125 74.484375 94.226562 74.332031 94.359375 74.203125 C 94.488281 74.070312 94.640625 73.96875 94.8125 73.898438 C 94.984375 73.828125 95.164062 73.792969 95.347656 73.792969 C 95.535156 73.792969 95.714844 73.828125 95.886719 73.898438 C 96.058594 73.96875 96.207031 74.070312 96.339844 74.203125 C 96.472656 74.332031 96.574219 74.484375 96.644531 74.65625 C 96.714844 74.828125 96.75 75.007812 96.75 75.191406 L 96.75 80.796875 L 102.355469 80.796875 C 102.542969 80.796875 102.71875 80.835938 102.890625 80.90625 C 103.0625 80.976562 103.214844 81.078125 103.347656 81.210938 C 103.476562 81.339844 103.578125 81.492188 103.652344 81.664062 C 103.722656 81.835938 103.757812 82.015625 103.757812 82.199219 C 103.757812 82.386719 103.722656 82.566406 103.652344 82.738281 C 103.578125 82.90625 103.476562 83.058594 103.347656 83.191406 C 103.214844 83.324219 103.0625 83.421875 102.890625 83.496094 C 102.71875 83.566406 102.542969 83.601562 102.355469 83.601562 Z M 102.355469 83.601562 " fill-opacity="1" fill-rule="nonzero"/></g></svg>