<svg xmlns="http://www.w3.org/2000/svg" xmlns:xlink="http://www.w3.org/1999/xlink" width="318" zoomAndPan="magnify" viewBox="0 0 238.5 189.000001" height="252" preserveAspectRatio="xMidYMid meet" version="1.0"><defs><clipPath id="0c70e8a611"><path d="M 0.378906 0 L 236.878906 0 L 236.878906 187.257812 L 0.378906 187.257812 Z M 0.378906 0 " clip-rule="nonzero"/></clipPath><clipPath id="52c844132d"><path d="M 74.664062 60.03125 L 106.296875 60.03125 L 106.296875 83.816406 L 74.664062 83.816406 Z M 74.664062 60.03125 " clip-rule="nonzero"/></clipPath><clipPath id="d9299310eb"><path d="M 0.664062 0.03125 L 32.296875 0.03125 L 32.296875 23.816406 L 0.664062 23.816406 Z M 0.664062 0.03125 " clip-rule="nonzero"/></clipPath><clipPath id="f8c7e85cfe"><rect x="0" width="33" y="0" height="24"/></clipPath></defs><g clip-path="url(#0c70e8a611)"><path fill="#ffffff" d="M 48.070312 151.351562 C 47.804688 150.332031 48.109375 149.042969 49.015625 147.414062 C 52.234375 140.027344 56.289062 133.96875 61.175781 129.234375 C 66.023438 124.5 71.703125 121.128906 78.144531 119.082031 C 79.316406 118.664062 80.1875 118.023438 80.792969 117.1875 C 81.402344 116.355469 81.742188 115.332031 81.777344 114.082031 L 81.777344 113.855469 C 81.742188 113.171875 81.96875 112.605469 82.386719 112.1875 C 82.800781 111.808594 83.445312 111.546875 84.277344 111.46875 L 84.773438 111.429688 L 132.683594 111.429688 C 133.707031 111.429688 134.539062 111.546875 135.109375 111.847656 C 135.488281 112 135.789062 112.265625 135.980469 112.566406 C 136.167969 112.871094 136.28125 113.25 136.28125 113.667969 C 136.320312 114.308594 136.09375 115.144531 135.640625 116.050781 L 128.40625 130.21875 C 127.796875 132.226562 127.875 134.347656 128.480469 136.277344 C 129.085938 138.210938 130.296875 139.988281 131.925781 141.316406 C 133.59375 142.640625 135.601562 143.359375 137.609375 143.550781 C 139.617188 143.703125 141.699219 143.285156 143.515625 142.261719 L 152.378906 114.234375 C 153.707031 111.582031 153.515625 109.460938 151.851562 107.910156 C 150.144531 106.316406 146.964844 105.296875 142.265625 104.804688 C 142.34375 105.636719 142.191406 106.394531 141.925781 107 C 141.585938 107.679688 141.054688 108.175781 140.335938 108.554688 C 140.144531 108.628906 88.027344 108.554688 82.914062 108.554688 C 82.15625 108.667969 81.402344 108.515625 80.71875 108.210938 C 80.035156 107.871094 79.429688 107.378906 79.015625 106.734375 C 78.558594 106.054688 78.332031 105.332031 78.332031 104.574219 C 78.292969 103.816406 78.484375 103.0625 78.863281 102.378906 C 79.242188 101.695312 79.808594 101.128906 80.453125 100.789062 C 81.097656 100.410156 81.855469 100.21875 82.652344 100.257812 L 120.527344 99.953125 C 119.84375 99.765625 119.238281 99.539062 118.632812 99.3125 C 115.90625 98.175781 114.050781 96.46875 113.101562 94.234375 C 112.117188 92 112.042969 89.234375 112.800781 85.941406 C 113.179688 84.425781 113.707031 82.796875 114.429688 81.09375 C 117.609375 69.652344 121.398438 60.035156 125.714844 52.230469 C 130.070312 44.429688 134.957031 38.445312 140.449219 34.277344 L 140.488281 34.238281 C 146.246094 30.832031 150.980469 30.867188 154.730469 34.316406 C 158.441406 37.722656 161.128906 44.542969 162.835938 54.730469 L 162.835938 54.769531 C 162.796875 57.382812 163.210938 59.351562 164.082031 60.753906 C 164.917969 62.15625 166.167969 62.949219 167.910156 63.175781 C 169.347656 63.519531 171.546875 63.898438 174.460938 64.3125 C 177.339844 64.769531 180.9375 65.261719 185.257812 65.828125 C 185.710938 64.769531 186.621094 63.820312 187.984375 63.0625 C 189.347656 62.304688 191.164062 61.699219 193.4375 61.246094 C 193.816406 60.222656 193.890625 59.277344 193.589844 58.367188 C 193.324219 57.457031 192.71875 56.585938 191.769531 55.714844 C 190.40625 55.941406 189.082031 55.640625 187.984375 54.957031 C 186.886719 54.238281 186.015625 53.140625 185.636719 51.777344 C 185.292969 50.414062 185.484375 49.050781 186.050781 47.875 C 186.65625 46.703125 187.679688 45.753906 189.007812 45.261719 C 190.332031 44.730469 191.734375 44.808594 192.945312 45.300781 C 194.15625 45.753906 195.21875 46.703125 195.824219 47.949219 C 196.429688 49.238281 196.503906 50.640625 196.164062 51.890625 C 195.785156 53.101562 195.027344 54.164062 193.890625 54.921875 C 194.386719 55.449219 194.761719 56.171875 195.105469 57.003906 C 195.445312 57.914062 195.75 58.972656 195.9375 60.222656 C 196.390625 61.167969 197.1875 61.699219 198.324219 61.8125 C 199.5 61.925781 201.050781 61.585938 202.90625 60.792969 L 202.945312 60.753906 C 204.613281 60.5625 205.859375 60.753906 206.695312 61.359375 C 207.488281 62.003906 207.867188 63.0625 207.792969 64.503906 L 206.808594 75.941406 C 206.847656 76.472656 206.847656 76.964844 206.769531 77.378906 C 206.617188 78.402344 206.164062 79.199219 205.445312 79.765625 C 204.726562 80.296875 203.738281 80.601562 202.492188 80.714844 C 201.542969 80.75 200.484375 80.675781 199.234375 80.488281 C 198.058594 80.675781 197.300781 81.09375 197.035156 81.699219 C 196.734375 82.304688 196.921875 83.175781 197.566406 84.238281 L 197.566406 84.273438 C 199.914062 89.539062 201.882812 94.878906 203.511719 100.296875 C 205.140625 105.675781 206.390625 111.128906 207.300781 116.660156 L 207.339844 116.695312 C 207.300781 117.492188 207.339844 118.210938 207.488281 118.816406 C 207.679688 119.652344 208.019531 120.292969 208.511719 120.710938 C 209.003906 121.128906 209.648438 121.355469 210.480469 121.394531 C 210.972656 121.429688 211.582031 121.355469 212.222656 121.203125 L 212.261719 121.203125 C 215.519531 121.960938 218.550781 122.90625 221.351562 124.121094 C 224.191406 125.292969 226.769531 126.734375 229.15625 128.398438 C 231.65625 130.824219 233.054688 132.792969 233.320312 134.234375 C 233.625 135.746094 232.753906 136.734375 230.785156 137.226562 L 187.492188 161.464844 C 185.105469 163.285156 183.324219 164.078125 182.113281 163.851562 C 180.902344 163.585938 180.296875 162.261719 180.371094 159.875 C 180.371094 159.003906 180.332031 158.171875 180.21875 157.488281 C 179.953125 155.972656 179.460938 154.875 178.742188 154.15625 C 177.984375 153.398438 177 153.019531 175.75 153.019531 C 175.332031 153.019531 174.917969 153.058594 174.460938 153.132812 C 164.652344 153.964844 54.507812 154.421875 50.570312 153.472656 C 49.167969 153.09375 48.335938 152.375 48.070312 151.351562 Z M 23.222656 57.988281 C 22.425781 57.988281 21.746094 57.34375 21.746094 56.511719 C 21.746094 55.714844 22.425781 55.035156 23.222656 55.035156 L 56.667969 55.035156 C 57.460938 55.035156 58.144531 55.714844 58.144531 56.511719 C 58.144531 57.34375 57.460938 57.988281 56.667969 57.988281 Z M 1.859375 145.066406 C 1.066406 145.066406 0.382812 144.382812 0.382812 143.589844 C 0.382812 142.753906 1.066406 142.109375 1.859375 142.109375 L 45.722656 142.109375 C 46.515625 142.109375 47.199219 142.753906 47.199219 143.589844 C 47.199219 144.382812 46.515625 145.066406 45.722656 145.066406 Z M 9.4375 130.898438 C 8.601562 130.898438 7.957031 130.21875 7.957031 129.421875 C 7.957031 128.589844 8.601562 127.90625 9.4375 127.90625 L 53.257812 127.90625 C 54.09375 127.90625 54.734375 128.589844 54.734375 129.421875 C 54.734375 130.21875 54.09375 130.898438 53.257812 130.898438 Z M 28.335938 117.644531 C 27.503906 117.644531 26.859375 117 26.859375 116.164062 C 26.859375 115.371094 27.503906 114.6875 28.335938 114.6875 L 72.160156 114.6875 C 72.992188 114.6875 73.636719 115.371094 73.636719 116.164062 C 73.636719 117 72.992188 117.644531 72.160156 117.644531 Z M 5.875 84.691406 C 5.082031 84.691406 4.398438 84.046875 4.398438 83.214844 C 4.398438 82.417969 5.082031 81.738281 5.875 81.738281 L 49.699219 81.738281 C 50.53125 81.738281 51.214844 82.417969 51.214844 83.214844 C 51.214844 84.046875 50.53125 84.691406 49.699219 84.691406 Z M 12.957031 71.167969 C 12.125 71.167969 11.445312 70.523438 11.445312 69.691406 C 11.445312 68.898438 12.125 68.214844 12.957031 68.214844 L 54.09375 68.214844 C 54.925781 68.214844 55.605469 68.898438 55.605469 69.691406 C 55.605469 70.523438 54.925781 71.167969 54.09375 71.167969 Z M 222.980469 146.503906 C 229.230469 143.246094 231.691406 141.089844 231.691406 141.089844 L 231.804688 140.976562 L 231.921875 141.125 C 236.199219 147.1875 237.222656 154.535156 235.667969 161.542969 C 234.042969 168.8125 229.609375 175.746094 223.132812 180.480469 C 221.085938 181.996094 218.964844 183.167969 216.769531 183.964844 C 211.960938 185.78125 206.996094 185.859375 202.453125 184.417969 C 197.871094 182.941406 193.664062 179.910156 190.371094 175.441406 C 188.703125 173.132812 187.226562 170.441406 186.089844 167.414062 L 186.050781 167.296875 L 195.863281 161.011719 L 195.898438 161.238281 C 196.769531 164.796875 198.132812 167.5625 199.800781 169.609375 C 201.503906 171.730469 203.550781 173.09375 205.746094 173.777344 C 207.90625 174.457031 210.253906 174.457031 212.527344 173.890625 C 214.875 173.320312 217.148438 172.148438 219.230469 170.480469 C 219.535156 170.214844 219.875 169.949219 220.179688 169.648438 C 222.980469 167.070312 225.441406 163.472656 226.390625 159.570312 C 227.335938 155.632812 226.769531 151.390625 223.625 147.527344 L 222.828125 146.582031 Z M 168.894531 39.125 C 162.378906 35.945312 157.417969 33.332031 154.046875 31.210938 C 150.636719 29.089844 148.78125 27.535156 148.515625 26.476562 C 146.925781 21.96875 147.078125 17.195312 148.667969 12.992188 C 150.296875 8.789062 153.363281 5.113281 157.605469 2.839844 C 161.8125 0.566406 166.546875 0 170.941406 0.984375 C 175.332031 1.933594 179.421875 4.429688 182.300781 8.257812 L 182.300781 8.292969 C 184.160156 11.324219 185.144531 13.75 185.257812 15.527344 C 185.40625 17.386719 184.652344 18.558594 182.984375 19.089844 L 182.910156 19.089844 C 181.621094 18.976562 180.21875 18.597656 178.628906 17.992188 C 177.074219 17.386719 175.371094 16.550781 173.515625 15.453125 C 172.226562 14.734375 171.128906 14.542969 170.21875 14.847656 C 169.3125 15.1875 168.554688 16.097656 167.984375 17.5 C 167.265625 20.640625 167 23.140625 167.226562 25.035156 C 167.453125 26.890625 168.136719 28.140625 169.3125 28.785156 C 171.433594 29.996094 173.097656 31.132812 174.347656 32.234375 C 175.558594 33.253906 176.355469 34.277344 176.734375 35.1875 C 177.113281 36.171875 177.074219 37.042969 176.621094 37.875 C 176.507812 38.066406 176.355469 38.292969 176.203125 38.480469 C 175.144531 39.582031 174.007812 40.1875 172.757812 40.261719 C 171.546875 40.375 170.257812 39.996094 168.894531 39.125 Z M 63.902344 48.292969 C 64.660156 45.074219 66.0625 43.332031 68.144531 42.988281 C 98.21875 43.101562 113.292969 43.140625 113.292969 43.140625 C 116.207031 44.011719 117.457031 46.058594 117.003906 49.277344 C 112.15625 77.796875 109.730469 92.039062 109.730469 92.039062 C 109.316406 95.257812 107.988281 96.886719 105.71875 96.925781 C 74.394531 97 58.710938 97.039062 58.710938 97.039062 C 55.984375 96.582031 54.964844 94.613281 55.644531 91.167969 C 61.136719 62.570312 63.902344 48.292969 63.902344 48.292969 Z M 62.046875 155.898438 C 62.046875 155.898438 65.226562 156.691406 72.234375 156.691406 L 72.425781 156.691406 L 72.160156 157.90625 C 71.136719 162.792969 72.613281 166.84375 75.226562 169.875 C 77.878906 172.941406 81.703125 174.988281 85.378906 175.972656 C 85.792969 176.085938 86.210938 176.199219 86.589844 176.273438 C 89.203125 176.804688 91.777344 176.804688 94.125 176.238281 C 96.398438 175.707031 98.484375 174.648438 100.109375 173.019531 C 101.738281 171.425781 102.914062 169.269531 103.480469 166.617188 C 104.011719 164.042969 103.9375 160.933594 103.066406 157.375 L 103.027344 157.148438 C 106.890625 157.527344 110.753906 157.90625 114.617188 158.246094 L 114.617188 158.359375 C 114.996094 161.578125 114.957031 164.648438 114.503906 167.449219 C 113.632812 172.941406 111.285156 177.5625 107.914062 180.972656 C 104.503906 184.378906 100.074219 186.539062 94.960938 187.144531 C 92.648438 187.410156 90.226562 187.371094 87.6875 186.992188 C 79.773438 185.746094 72.6875 181.617188 67.878906 175.894531 C 63.296875 170.40625 60.832031 163.398438 61.855469 156.011719 L 61.894531 155.859375 Z M 141.511719 82.910156 C 141.964844 83.667969 142.875 84.238281 144.238281 84.578125 C 152.457031 87.605469 160.976562 92.078125 169.195312 95.371094 C 171.054688 96.46875 172.152344 97.757812 172.53125 99.347656 C 172.910156 100.902344 172.566406 102.71875 171.507812 104.765625 L 157.910156 138.890625 C 157.570312 139.988281 157.457031 140.898438 157.570312 141.65625 C 157.683594 142.339844 158.023438 142.867188 158.59375 143.285156 L 167.492188 143.511719 C 175.523438 140.445312 181.203125 133.777344 184.652344 123.515625 C 188.058594 113.171875 189.15625 99.234375 187.945312 81.621094 C 187.984375 79.160156 187.644531 77.304688 186.886719 75.941406 C 186.128906 74.652344 184.992188 73.859375 183.476562 73.59375 L 160.183594 71.890625 C 158.820312 71.511719 157.605469 70.714844 156.546875 69.539062 C 155.449219 68.367188 154.539062 66.777344 153.742188 64.769531 C 153.59375 64.199219 153.25 63.785156 152.796875 63.480469 C 152.378906 63.175781 151.851562 62.988281 151.28125 63.027344 C 150.714844 63.0625 150.183594 63.289062 149.804688 63.632812 C 149.386719 64.011719 149.121094 64.464844 149.007812 65.035156 C 148.972656 65.449219 142.34375 78.367188 141.546875 79.957031 C 141.09375 81.167969 141.09375 82.152344 141.511719 82.910156 Z M 141.511719 82.910156 " fill-opacity="1" fill-rule="evenodd"/></g><g clip-path="url(#52c844132d)"><g transform="matrix(1, 0, 0, 1, 74, 60)"><g clip-path="url(#f8c7e85cfe)"><g clip-path="url(#d9299310eb)"><path fill="#ffffff" d="M 0.664062 0.03125 L 32.34375 0.03125 L 32.34375 23.816406 L 0.664062 23.816406 Z M 0.664062 0.03125 " fill-opacity="1" fill-rule="nonzero"/></g></g></g></g></svg>