<svg xmlns="http://www.w3.org/2000/svg" xmlns:xlink="http://www.w3.org/1999/xlink" width="304" zoomAndPan="magnify" viewBox="0 0 228 227.999995" height="304" preserveAspectRatio="xMidYMid meet" version="1.0"><defs><clipPath id="e1bd359628"><path d="M 100.472656 100.472656 L 127.472656 100.472656 L 127.472656 127.472656 L 100.472656 127.472656 Z M 100.472656 100.472656 " clip-rule="nonzero"/></clipPath></defs><path fill="#ffffff" d="M 131.496094 114.136719 C 131.496094 114.710938 131.46875 115.28125 131.414062 115.851562 C 131.355469 116.421875 131.273438 116.988281 131.160156 117.550781 C 131.046875 118.113281 130.910156 118.667969 130.742188 119.214844 C 130.578125 119.765625 130.382812 120.304688 130.164062 120.832031 C 129.945312 121.363281 129.699219 121.878906 129.429688 122.382812 C 129.160156 122.890625 128.867188 123.378906 128.546875 123.855469 C 128.230469 124.332031 127.886719 124.792969 127.523438 125.234375 C 127.160156 125.679688 126.777344 126.101562 126.371094 126.507812 C 125.964844 126.914062 125.542969 127.296875 125.097656 127.660156 C 124.65625 128.023438 124.195312 128.367188 123.71875 128.683594 C 123.242188 129.003906 122.753906 129.296875 122.246094 129.566406 C 121.742188 129.835938 121.226562 130.082031 120.695312 130.300781 C 120.167969 130.519531 119.628906 130.714844 119.078125 130.878906 C 118.53125 131.046875 117.976562 131.183594 117.414062 131.296875 C 116.851562 131.410156 116.285156 131.492188 115.714844 131.546875 C 115.144531 131.605469 114.574219 131.632812 114 131.632812 C 113.425781 131.632812 112.855469 131.605469 112.285156 131.546875 C 111.714844 131.492188 111.148438 131.410156 110.585938 131.296875 C 110.023438 131.183594 109.46875 131.046875 108.921875 130.878906 C 108.371094 130.714844 107.832031 130.519531 107.304688 130.300781 C 106.773438 130.082031 106.257812 129.835938 105.753906 129.566406 C 105.246094 129.296875 104.757812 129.003906 104.28125 128.683594 C 103.804688 128.367188 103.34375 128.023438 102.898438 127.660156 C 102.457031 127.296875 102.035156 126.914062 101.628906 126.507812 C 101.222656 126.101562 100.839844 125.679688 100.476562 125.234375 C 100.113281 124.792969 99.769531 124.332031 99.453125 123.855469 C 99.132812 123.378906 98.839844 122.890625 98.570312 122.382812 C 98.300781 121.878906 98.054688 121.363281 97.835938 120.832031 C 97.617188 120.304688 97.421875 119.765625 97.257812 119.214844 C 97.089844 118.667969 96.953125 118.113281 96.839844 117.550781 C 96.726562 116.988281 96.644531 116.421875 96.585938 115.851562 C 96.53125 115.28125 96.503906 114.710938 96.503906 114.136719 C 96.503906 113.5625 96.53125 112.992188 96.585938 112.421875 C 96.644531 111.851562 96.726562 111.285156 96.839844 110.722656 C 96.953125 110.160156 97.089844 109.605469 97.257812 109.058594 C 97.421875 108.507812 97.617188 107.96875 97.835938 107.441406 C 98.054688 106.910156 98.300781 106.394531 98.570312 105.890625 C 98.839844 105.382812 99.132812 104.894531 99.453125 104.417969 C 99.769531 103.941406 100.113281 103.480469 100.476562 103.035156 C 100.839844 102.59375 101.222656 102.171875 101.628906 101.765625 C 102.035156 101.359375 102.457031 100.976562 102.898438 100.613281 C 103.34375 100.25 103.804688 99.90625 104.28125 99.589844 C 104.757812 99.269531 105.246094 98.976562 105.753906 98.707031 C 106.257812 98.4375 106.773438 98.191406 107.304688 97.972656 C 107.832031 97.753906 108.371094 97.558594 108.921875 97.394531 C 109.46875 97.226562 110.023438 97.089844 110.585938 96.976562 C 111.148438 96.863281 111.714844 96.78125 112.285156 96.722656 C 112.855469 96.667969 113.425781 96.640625 114 96.640625 C 114.574219 96.640625 115.144531 96.667969 115.714844 96.722656 C 116.285156 96.78125 116.851562 96.863281 117.414062 96.976562 C 117.976562 97.089844 118.53125 97.226562 119.078125 97.394531 C 119.628906 97.558594 120.167969 97.753906 120.695312 97.972656 C 121.226562 98.191406 121.742188 98.4375 122.246094 98.707031 C 122.753906 98.976562 123.242188 99.269531 123.71875 99.589844 C 124.195312 99.90625 124.65625 100.25 125.097656 100.613281 C 125.542969 100.976562 125.964844 101.359375 126.371094 101.765625 C 126.777344 102.171875 127.160156 102.59375 127.523438 103.035156 C 127.886719 103.480469 128.230469 103.941406 128.546875 104.417969 C 128.867188 104.894531 129.160156 105.382812 129.429688 105.890625 C 129.699219 106.394531 129.945312 106.910156 130.164062 107.441406 C 130.382812 107.96875 130.578125 108.507812 130.742188 109.058594 C 130.910156 109.605469 131.046875 110.160156 131.160156 110.722656 C 131.273438 111.285156 131.355469 111.851562 131.414062 112.421875 C 131.46875 112.992188 131.496094 113.5625 131.496094 114.136719 Z M 131.496094 114.136719 " fill-opacity="1" fill-rule="nonzero"/><path fill="#ffffff" d="M 228 110.035156 L 202.027344 110.035156 C 199.839844 64.929688 163.207031 28.296875 118.101562 26.382812 L 118.101562 0.136719 L 109.898438 0.136719 L 109.898438 26.109375 C 64.792969 28.296875 28.160156 64.929688 26.246094 110.035156 L 0 110.035156 L 0 118.238281 L 25.972656 118.238281 C 28.160156 163.34375 64.792969 199.976562 109.898438 201.890625 L 109.898438 227.863281 L 118.101562 227.863281 L 118.101562 201.890625 C 163.207031 199.976562 199.839844 163.34375 201.753906 118.238281 L 227.726562 118.238281 Z M 190.820312 110.035156 L 174.964844 110.035156 C 173.050781 79.417969 148.445312 55.085938 117.828125 52.898438 L 117.828125 37.042969 C 157.195312 39.230469 188.90625 70.941406 190.820312 110.035156 Z M 167.582031 118.238281 C 165.667969 144.480469 144.617188 165.53125 118.101562 167.71875 L 118.101562 160.613281 L 109.898438 160.613281 L 109.898438 167.71875 C 83.65625 165.804688 62.605469 144.753906 60.417969 118.238281 L 67.523438 118.238281 L 67.523438 110.035156 L 60.417969 110.035156 C 62.332031 83.792969 83.382812 62.742188 109.898438 60.554688 L 109.898438 67.660156 L 118.101562 67.660156 L 118.101562 60.554688 C 144.34375 62.46875 165.394531 83.519531 167.582031 110.035156 L 160.476562 110.035156 L 160.476562 118.238281 Z M 109.898438 37.316406 L 109.898438 53.171875 C 79.28125 55.085938 54.949219 79.691406 52.761719 110.308594 L 36.90625 110.308594 C 39.09375 70.941406 70.804688 39.230469 109.898438 37.316406 Z M 37.179688 118.238281 L 53.035156 118.238281 C 54.949219 148.855469 79.554688 173.1875 110.171875 175.375 L 110.171875 191.230469 C 70.804688 189.042969 39.09375 157.332031 37.179688 118.238281 Z M 118.101562 190.957031 L 118.101562 175.101562 C 148.71875 173.1875 173.050781 148.582031 175.238281 117.964844 L 191.09375 117.964844 C 188.90625 157.332031 157.195312 189.042969 118.101562 190.957031 Z M 118.101562 190.957031 " fill-opacity="1" fill-rule="nonzero"/><g clip-path="url(#e1bd359628)"><path fill="#ffffff" d="M 127.519531 113.996094 C 127.519531 114.882812 127.433594 115.761719 127.257812 116.632812 C 127.085938 117.503906 126.828125 118.351562 126.488281 119.171875 C 126.148438 119.992188 125.734375 120.769531 125.238281 121.507812 C 124.746094 122.246094 124.1875 122.929688 123.558594 123.558594 C 122.929688 124.1875 122.246094 124.746094 121.507812 125.238281 C 120.769531 125.734375 119.992188 126.148438 119.171875 126.488281 C 118.351562 126.828125 117.503906 127.085938 116.632812 127.257812 C 115.761719 127.433594 114.882812 127.519531 113.996094 127.519531 C 113.109375 127.519531 112.226562 127.433594 111.359375 127.257812 C 110.488281 127.085938 109.640625 126.828125 108.820312 126.488281 C 108 126.148438 107.222656 125.734375 106.484375 125.238281 C 105.746094 124.746094 105.0625 124.1875 104.433594 123.558594 C 103.804688 122.929688 103.246094 122.246094 102.75 121.507812 C 102.257812 120.769531 101.839844 119.992188 101.5 119.171875 C 101.160156 118.351562 100.90625 117.503906 100.730469 116.632812 C 100.558594 115.761719 100.472656 114.882812 100.472656 113.996094 C 100.472656 113.109375 100.558594 112.226562 100.730469 111.359375 C 100.90625 110.488281 101.160156 109.640625 101.5 108.820312 C 101.839844 108 102.257812 107.222656 102.75 106.484375 C 103.246094 105.746094 103.804688 105.0625 104.433594 104.433594 C 105.0625 103.804688 105.746094 103.246094 106.484375 102.75 C 107.222656 102.257812 108 101.839844 108.820312 101.5 C 109.640625 101.160156 110.488281 100.90625 111.359375 100.730469 C 112.226562 100.558594 113.109375 100.472656 113.996094 100.472656 C 114.882812 100.472656 115.761719 100.558594 116.632812 100.730469 C 117.503906 100.90625 118.351562 101.160156 119.171875 101.5 C 119.992188 101.839844 120.769531 102.257812 121.507812 102.75 C 122.246094 103.246094 122.929688 103.804688 123.558594 104.433594 C 124.1875 105.0625 124.746094 105.746094 125.238281 106.484375 C 125.734375 107.222656 126.148438 108 126.488281 108.820312 C 126.828125 109.640625 127.085938 110.488281 127.257812 111.359375 C 127.433594 112.226562 127.519531 113.109375 127.519531 113.996094 Z M 127.519531 113.996094 " fill-opacity="1" fill-rule="nonzero"/></g></svg>